<svg xmlns="http://www.w3.org/2000/svg" viewBox="0 0 150 150"><defs><style>.a,.b{fill:none;stroke:#1d1d1b;stroke-linecap:round;stroke-width:3.71px;}.a{stroke-linejoin:round;}.b{stroke-miterlimit:10;}</style></defs><path class="a" d="M115.25,2.61c8.93,1.91,24.61,7.76,31.22,25.52,2.33,6.25,1.07,13.61-3.09,18.26-5.78,6.48-13.77,16-13.66,19.32.18,5.12-.35,11.53-9.16,22.43s-37.38,45.3-42.49,50.21-10.58,4.06-13.22-3.2c0,0-8.9,14.41-15.78,12.26-5-1.57-7.36-7.51-7.1-10.55,0,0-8.19,11.93-16.53,7.37-6.29-3.44-6.25-11-6.25-11s-8.42,2.83-12.92-1-5.55-12.5-.79-19.55,44-53.58,44-53.58-7.41.06-9.65-5.23S38.8,42.47,41.44,39.42s14-15.86,16.27-20,5.92-5.82,18.08-5,21.85-.22,23.44-2.36c.75-1,3-3.44,5.06-5.68A11.61,11.61,0,0,1,115.25,2.61Z"/><path class="b" d="M64.85,135.15a11.92,11.92,0,0,1,1.32-7.8c2.2-3.85,21-25.21,21-25.21"/><path class="b" d="M42,136.86s-1.28-5.58,4.4-12.32c4.14-4.92,23.5-27.74,23.5-27.74"/><path class="b" d="M19.19,133.23s-.71-4.49,3.79-9.83S52,88.57,52,88.57"/><line class="b" x1="49.51" y1="59.08" x2="69.87" y2="34.3"/><line class="b" x1="129.72" y1="65.71" x2="128.84" y2="54.97"/></svg>