<svg xmlns="http://www.w3.org/2000/svg" viewBox="0 0 150 150"><defs><style>.a,.b{fill:none;stroke:#1d1d1b;stroke-linecap:round;stroke-width:4.01px;}.a{stroke-linejoin:round;}.b{stroke-miterlimit:10;}</style></defs><path class="a" d="M145.72,36.28A33,33,0,0,1,139.59,69c-6.8,7.71-14.41,17-14.64,20-.4,5.44-.4,10-8.87,18.72s-28.77,38-39.39,39.77c-13.92,2.37-45.88-14.81-49.94-18.12-5-4.08-3.78-10.25.76-11.1,0,0-11.09-4-7-15,0,0-11.5-5.62-5.14-21.21,0,0-4.54-1.47-5.3-9,0,0-7.26,1-7.72-11.26S8.14,46.05,15.25,38.54,25.85,24.67,34,25s41.61,1,43,0S91.06,5,98.47,3.12C107.55.82,133.37,1.77,145.72,36.28Z"/><path class="b" d="M67,39.85s.76,14,0,19.42S60,72.82,56.26,72.82,32.81,65.47,29.33,63"/><path class="b" d="M10.11,73C7.84,51.43,22.52,42.29,28,41.15s30,11.26,30,11.26,11.71,7.3,2.93,17.81"/><path class="b" d="M15.41,82S44.46,95.23,70.08,99.58"/><path class="b" d="M20.55,103.17s27.14,12.52,48.52,14.69"/><path class="b" d="M27.51,118.19s20.34,11.64,39.83,14"/><line class="b" x1="76.99" y1="24.98" x2="88.64" y2="24.98"/><line class="b" x1="124.95" y1="88.92" x2="124.95" y2="75.21"/></svg>