<svg xmlns="http://www.w3.org/2000/svg" viewBox="0 0 150 150"><defs><style>.a{fill:none;stroke:#1d1d1b;stroke-linecap:round;stroke-miterlimit:10;stroke-width:3.88px;}</style></defs><path class="a" d="M116.69,3C127,5.86,141.34,14.45,147,39.71a23.54,23.54,0,0,1-5.23,20.92c-5.52,6-12.31,13.51-13,14.85-1.13,2.28.57,9.27-3.41,14.16s-24.08,27.89-28.35,32.88-8.25,9-12.8,7.59-23.33-9.87-23.33-9.87S43.82,141.57,37.65,146a9.35,9.35,0,0,1-13.79-3.75,17.55,17.55,0,0,1,2.7-18.39c4.84-6,18-19.53,18-19.53s-4.17,0-3.6-16.28c0,0-16.65,7-25.18,7.81S2.1,92.41,2.38,84.1,6.36,70.76,15,67.83s24.47-8.51,24.47-8.51-.72-11,1.56-14.61C44.24,39.61,58.3,21.44,63.68,20c4.46-1.22,25,0,25,0L99.29,8.35A17.12,17.12,0,0,1,116.69,3Z"/><path class="a" d="M40.78,58.87s28.59-8.3,29.87-11.23,0-9.76,0-9.76"/><path class="a" d="M40.93,88s23.8-11.67,25.31-10.56S51.85,96.62,44.53,104.29"/><line class="a" x1="60.93" y1="120.24" x2="79.9" y2="98.27"/><line class="a" x1="68.38" y1="111.61" x2="80.75" y2="117.64"/><line class="a" x1="56" y1="88.01" x2="59.04" y2="88.01"/><line class="a" x1="128.82" y1="75.48" x2="128.82" y2="64.57"/><line class="a" x1="88.71" y1="19.97" x2="98.1" y2="19.97"/></svg>